<svg xmlns="http://www.w3.org/2000/svg" version="1.1" xmlns:xlink="http://www.w3.org/1999/xlink" xmlns:svgjs="http://svgjs.com/svgjs" width="13px" height="13px"><svg width="13px" height="13px" viewBox="0 0 13 13" version="1.1" xmlns="http://www.w3.org/2000/svg" xmlns:xlink="http://www.w3.org/1999/xlink">
    <!-- Generator: Sketch 52.6 (67491) - http://www.bohemiancoding.com/sketch -->
    <title>Fill 87</title>
    <desc>Created with Sketch.</desc>
    <g id="SvgjsG1005" stroke="none" stroke-width="1" fill="none" fill-rule="evenodd">
        <g id="SvgjsG1004" transform="translate(-453.000000, -90.000000)" fill="#39A1B2">
            <g id="SvgjsG1003" transform="translate(298.000000, 90.000000)">
                <g id="SvgjsG1002">
                    <g transform="translate(106.000000, 0.000000)">
                        <g id="SvgjsG1001">
                            <path d="M59.142,5.201 L54.971,9.772 L51.874,6.675 C51.678,6.479 51.678,6.163 51.874,5.968 C52.069,5.772 52.385,5.772 52.581,5.968 L54.938,8.325 L58.403,4.527 C58.589,4.323 58.906,4.308 59.11,4.494 C59.314,4.68 59.328,4.997 59.142,5.201 M55.5,0 C51.915,0 49,2.916 49,6.5 C49,10.084 51.915,13 55.5,13 C59.084,13 62,10.084 62,6.5 C62,2.916 59.084,0 55.5,0" id="SvgjsPath1000"></path>
                        </g>
                    </g>
                </g>
            </g>
        </g>
    </g>
</svg><style>@media (prefers-color-scheme: light) { :root { filter: none; } }
</style></svg>